<?xml version="1.0" encoding="utf-8"?>
<!-- Generator: Adobe Illustrator 23.0.1, SVG Export Plug-In . SVG Version: 6.00 Build 0)  -->
<svg version="1.1" id="Lager_1" xmlns="http://www.w3.org/2000/svg" xmlns:xlink="http://www.w3.org/1999/xlink" x="0px" y="0px"
	 viewBox="0 0 187.49 50.7" enable-background="new 0 0 187.49 50.7" xml:space="preserve">
<g>
	<path fill="#0F0D0E" d="M36.11,21.7H20.36c-0.41,0-0.74,0.33-0.74,0.74v7.7c0,0.41,0.33,0.74,0.74,0.74h6.15v9.57
		c0,0-1.38,0.47-5.2,0.47c-4.5,0-10.79-1.64-10.79-15.47c0-13.83,6.55-15.65,12.69-15.65c5.32,0,7.61,0.94,9.07,1.39
		c0.46,0.14,0.88-0.32,0.88-0.72l1.76-7.44c0-0.19-0.06-0.42-0.28-0.58C34.05,2.02,30.44,0,21.31,0C10.79,0,0,4.47,0,25.99
		C0,47.5,12.35,50.7,22.76,50.7c8.62,0,13.85-3.68,13.85-3.68c0.22-0.12,0.24-0.42,0.24-0.56V22.44
		C36.85,22.03,36.52,21.7,36.11,21.7z"/>
	<path fill="#0F0D0E" d="M117.31,2.58c0-0.41-0.32-0.74-0.73-0.74h-8.87c-0.41,0-0.73,0.33-0.73,0.74c0,0,0,17.14,0,17.14H93.14
		V2.58c0-0.41-0.33-0.74-0.73-0.74h-8.87c-0.4,0-0.73,0.33-0.73,0.74V49c0,0.41,0.33,0.74,0.73,0.74h8.87
		c0.41,0,0.73-0.33,0.73-0.74V29.14h13.83c0,0-0.02,19.85-0.02,19.86c0,0.41,0.33,0.74,0.73,0.74h8.89c0.41,0,0.73-0.33,0.73-0.74
		V2.58z"/>
	<g>
		<g>
			<path fill="#0F0D0E" d="M52.85,8.67c0-3.19-2.56-5.78-5.72-5.78c-3.16,0-5.72,2.58-5.72,5.78c0,3.19,2.56,5.78,5.72,5.78
				C50.29,14.45,52.85,11.86,52.85,8.67z"/>
			<path fill="#0F0D0E" d="M52.22,39.21c0-1.19,0-21.43,0-21.43c0-0.41-0.33-0.74-0.73-0.74h-8.84c-0.41,0-0.77,0.42-0.77,0.83
				c0,0,0,25.78,0,30.7c0,0.9,0.56,1.17,1.29,1.17c0,0,3.77,0,7.97,0c0.87,0,1.09-0.43,1.09-1.18
				C52.22,46.9,52.22,40.46,52.22,39.21z"/>
		</g>
	</g>
	<path fill="#0F0D0E" d="M151.02,17.11h-8.8c-0.4,0-0.73,0.33-0.73,0.74v22.76c0,0-2.24,1.64-5.41,1.64c-3.17,0-4.02-1.44-4.02-4.55
		c0-3.11,0-19.85,0-19.85c0-0.41-0.33-0.74-0.73-0.74h-8.93c-0.4,0-0.73,0.33-0.73,0.74c0,0,0,12.12,0,21.35
		c0,9.23,5.14,11.49,12.22,11.49c5.81,0,10.49-3.21,10.49-3.21s0.22,1.69,0.32,1.89c0.1,0.2,0.36,0.4,0.65,0.4l5.68-0.03
		c0.4,0,0.73-0.33,0.73-0.74l0-31.16C151.75,17.44,151.42,17.11,151.02,17.11z"/>
	<path fill="#0F0D0E" d="M175.08,16.07c-5,0-8.4,2.23-8.4,2.23V2.58c0-0.41-0.33-0.74-0.73-0.74h-8.9c-0.4,0-0.73,0.33-0.73,0.74V49
		c0,0.41,0.33,0.74,0.73,0.74c0,0,6.17,0,6.17,0c0.28,0,0.49-0.14,0.64-0.39c0.15-0.25,0.37-2.14,0.37-2.14s3.64,3.45,10.52,3.45
		c8.08,0,12.72-4.1,12.72-18.41C187.49,17.94,180.08,16.07,175.08,16.07z M171.61,42.22c-3.05-0.09-5.12-1.48-5.12-1.48v-14.7
		c0,0,2.04-1.25,4.55-1.48c3.17-0.28,6.22,0.67,6.22,8.24C177.26,40.77,175.88,42.35,171.61,42.22z"/>
	<path fill="#0F0D0E" d="M77.71,17.03h-6.65c0,0-0.01-8.79-0.01-8.79c0-0.33-0.17-0.5-0.56-0.5h-9.07c-0.35,0-0.54,0.16-0.54,0.49
		v9.08c0,0-4.54,1.1-4.85,1.19c-0.31,0.09-0.53,0.37-0.53,0.71v5.71c0,0.41,0.33,0.74,0.73,0.74h4.65c0,0,0,5.97,0,13.73
		c0,10.2,7.16,11.2,11.98,11.2c2.21,0,4.85-0.71,5.28-0.87c0.26-0.1,0.42-0.37,0.42-0.67l0.01-6.28c0-0.41-0.35-0.74-0.74-0.74
		c-0.39,0-1.38,0.16-2.4,0.16c-3.27,0-4.38-1.52-4.38-3.49c0-1.97,0-13.05,0-13.05h6.65c0.41,0,0.73-0.33,0.73-0.74v-7.15
		C78.45,17.36,78.12,17.03,77.71,17.03z"/>
</g>
</svg>
