<?xml version="1.0" encoding="utf-8"?>
<!-- Generator: Adobe Illustrator 23.0.1, SVG Export Plug-In . SVG Version: 6.00 Build 0)  -->
<svg version="1.1" id="Lager_1" xmlns="http://www.w3.org/2000/svg" xmlns:xlink="http://www.w3.org/1999/xlink" x="0px" y="0px"
	 viewBox="0 0 361.47 95" enable-background="new 0 0 361.47 95" xml:space="preserve">
<g>
	<path fill="#352501" stroke="#5E3F00" stroke-width="2" stroke-miterlimit="10" d="M348.47,1H13c0,6.6-5.4,12-12,12v69
		c6.6,0,12,5.4,12,12h335.47c0-6.6,5.4-12,12-12V13C353.87,13,348.47,7.6,348.47,1z"/>
	<g>
		<g>
			<path fill="#F4E4E9" d="M72.55,21.63c0,1.55-0.32,2.88-0.96,3.99c-0.64,1.11-1.52,2.02-2.64,2.71c-1.16,0.72-2.48,1.24-3.97,1.57
				c-1.49,0.32-3.16,0.48-5.01,0.48h-2.24v7.71c0,0.46,0.09,0.87,0.26,1.21c0.17,0.34,0.51,0.62,1,0.82
				c0.26,0.1,0.68,0.21,1.26,0.33c0.58,0.12,1.07,0.19,1.47,0.23v1.51H46.85v-1.51c0.37-0.04,0.87-0.09,1.49-0.16
				s1.05-0.16,1.29-0.26c0.5-0.21,0.83-0.46,1-0.75c0.16-0.3,0.24-0.71,0.24-1.24V18.93c0-0.45-0.08-0.84-0.23-1.17
				c-0.15-0.33-0.49-0.6-1-0.82c-0.36-0.15-0.84-0.29-1.44-0.42c-0.6-0.12-1.05-0.2-1.34-0.24v-1.51h15.13
				c3.54,0,6.19,0.56,7.94,1.69C71.68,17.59,72.55,19.31,72.55,21.63z M65.02,22.62c0-2.06-0.42-3.59-1.25-4.59
				c-0.83-1-2.31-1.5-4.43-1.5h-1.6v12.04h0.81c2.11,0,3.72-0.49,4.82-1.46C64.47,26.14,65.02,24.64,65.02,22.62z"/>
			<path fill="#F4E4E9" d="M96.48,41.79c-0.57,0.24-1.23,0.47-2.01,0.68c-0.77,0.21-1.59,0.31-2.45,0.31
				c-1.58,0-2.74-0.24-3.49-0.71c-0.75-0.47-1.25-1.14-1.52-2.02h-0.12c-0.44,0.44-0.86,0.81-1.27,1.12
				c-0.41,0.31-0.84,0.57-1.31,0.79c-0.61,0.28-1.19,0.5-1.75,0.64c-0.56,0.14-1.34,0.21-2.35,0.21c-1.5,0-2.77-0.44-3.83-1.33
				c-1.06-0.88-1.59-2.05-1.59-3.51c0-0.84,0.12-1.55,0.35-2.14c0.23-0.59,0.56-1.11,0.99-1.56c0.39-0.41,0.84-0.75,1.34-1.03
				c0.51-0.27,1.07-0.52,1.67-0.75c1.16-0.43,2.55-0.87,4.18-1.33s2.81-0.87,3.56-1.23v-1.86c0-0.32-0.03-0.75-0.08-1.28
				c-0.05-0.53-0.16-0.97-0.33-1.33c-0.18-0.41-0.46-0.76-0.85-1.04c-0.39-0.28-0.9-0.43-1.53-0.43c-0.57,0-1.04,0.08-1.42,0.24
				c-0.38,0.16-0.69,0.33-0.92,0.49c0.04,0.26,0.15,0.65,0.33,1.18c0.18,0.53,0.27,1.04,0.27,1.53c0,0.22-0.06,0.49-0.17,0.82
				s-0.28,0.59-0.5,0.78c-0.3,0.26-0.63,0.46-1,0.6c-0.37,0.14-0.93,0.21-1.7,0.21c-1.09,0-1.91-0.26-2.46-0.78
				c-0.56-0.52-0.83-1.2-0.83-2.04c0-0.72,0.29-1.37,0.86-1.94c0.57-0.57,1.27-1.05,2.1-1.42c0.81-0.39,1.75-0.69,2.8-0.9
				c1.06-0.21,2.04-0.32,2.94-0.32c1.25,0,2.4,0.07,3.44,0.22c1.04,0.15,1.98,0.45,2.82,0.92c0.8,0.45,1.43,1.1,1.9,1.96
				c0.47,0.86,0.71,1.97,0.71,3.35c0,1.46-0.03,3.18-0.09,5.18c-0.06,2-0.09,3.31-0.09,3.94c0,0.58,0.09,1.04,0.26,1.37
				c0.17,0.33,0.44,0.59,0.8,0.75c0.22,0.1,0.56,0.16,1.03,0.18c0.47,0.02,0.9,0.03,1.29,0.03V41.79z M86.89,31.72
				c-0.72,0.25-1.44,0.53-2.15,0.84c-0.71,0.32-1.29,0.65-1.75,1c-0.48,0.36-0.85,0.82-1.12,1.38c-0.27,0.56-0.41,1.22-0.41,1.99
				c0,1.01,0.23,1.74,0.69,2.19c0.46,0.45,1.02,0.68,1.7,0.68c0.71,0,1.3-0.15,1.76-0.44c0.46-0.29,0.86-0.65,1.21-1.08L86.89,31.72
				z"/>
			<path fill="#F4E4E9" d="M121.5,32.78c0,2.72-0.91,5.05-2.72,7c-1.81,1.95-4.11,2.92-6.89,2.92c-1.24,0-2.24-0.13-3.01-0.38
				c-0.77-0.25-1.41-0.56-1.91-0.92h-0.15v5.43c0,0.45,0.1,0.84,0.3,1.18c0.2,0.33,0.48,0.58,0.84,0.73
				c0.35,0.14,0.84,0.27,1.48,0.39c0.64,0.12,1.17,0.19,1.59,0.21v1.43H97.06v-1.43c0.32-0.03,0.73-0.07,1.22-0.14
				c0.49-0.07,0.86-0.14,1.1-0.22c0.41-0.14,0.69-0.38,0.84-0.72c0.15-0.34,0.22-0.73,0.22-1.17V27.31c-0.04-0.43-0.14-0.8-0.3-1.12
				c-0.16-0.32-0.42-0.61-0.76-0.85c-0.26-0.17-0.6-0.31-1.02-0.42c-0.43-0.11-0.84-0.18-1.26-0.22v-1.41l9.43-0.5l0.29,0.25v2.14
				l0.15,0.04c0.85-0.86,1.79-1.53,2.83-2.01c1.04-0.48,2.06-0.71,3.08-0.71c2.66,0,4.77,0.94,6.31,2.83S121.5,29.7,121.5,32.78z
				 M114.56,32.86c0-0.97-0.07-1.89-0.21-2.77c-0.14-0.88-0.39-1.67-0.75-2.37c-0.35-0.7-0.81-1.25-1.38-1.66
				c-0.57-0.41-1.27-0.62-2.09-0.62c-0.84,0-1.5,0.14-2,0.43c-0.5,0.29-0.94,0.67-1.31,1.13v10.96c0.08,0.26,0.22,0.59,0.44,1
				c0.22,0.41,0.44,0.73,0.66,0.98c0.32,0.35,0.69,0.61,1.1,0.77c0.41,0.17,0.86,0.25,1.35,0.25c1.27,0,2.29-0.69,3.05-2.06
				C114.18,37.52,114.56,35.51,114.56,32.86z"/>
			<path fill="#F4E4E9" d="M146.08,41.79c-0.57,0.24-1.23,0.47-2.01,0.68c-0.77,0.21-1.59,0.31-2.45,0.31
				c-1.58,0-2.74-0.24-3.49-0.71c-0.75-0.47-1.25-1.14-1.52-2.02h-0.12c-0.44,0.44-0.86,0.81-1.27,1.12
				c-0.41,0.31-0.84,0.57-1.31,0.79c-0.61,0.28-1.19,0.5-1.75,0.64c-0.56,0.14-1.34,0.21-2.35,0.21c-1.5,0-2.77-0.44-3.83-1.33
				c-1.06-0.88-1.59-2.05-1.59-3.51c0-0.84,0.12-1.55,0.35-2.14c0.23-0.59,0.56-1.11,0.99-1.56c0.39-0.41,0.84-0.75,1.34-1.03
				c0.51-0.27,1.07-0.52,1.67-0.75c1.16-0.43,2.55-0.87,4.18-1.33s2.81-0.87,3.56-1.23v-1.86c0-0.32-0.03-0.75-0.08-1.28
				c-0.05-0.53-0.16-0.97-0.33-1.33c-0.18-0.41-0.46-0.76-0.85-1.04c-0.39-0.28-0.9-0.43-1.53-0.43c-0.57,0-1.04,0.08-1.42,0.24
				c-0.38,0.16-0.69,0.33-0.92,0.49c0.04,0.26,0.15,0.65,0.33,1.18c0.18,0.53,0.27,1.04,0.27,1.53c0,0.22-0.06,0.49-0.17,0.82
				c-0.12,0.33-0.28,0.59-0.5,0.78c-0.3,0.26-0.63,0.46-1,0.6c-0.37,0.14-0.93,0.21-1.7,0.21c-1.09,0-1.91-0.26-2.46-0.78
				c-0.56-0.52-0.83-1.2-0.83-2.04c0-0.72,0.29-1.37,0.86-1.94c0.57-0.57,1.27-1.05,2.1-1.42c0.81-0.39,1.75-0.69,2.8-0.9
				c1.06-0.21,2.04-0.32,2.94-0.32c1.25,0,2.4,0.07,3.44,0.22c1.04,0.15,1.98,0.45,2.82,0.92c0.8,0.45,1.43,1.1,1.9,1.96
				c0.47,0.86,0.71,1.97,0.71,3.35c0,1.46-0.03,3.18-0.09,5.18c-0.06,2-0.09,3.31-0.09,3.94c0,0.58,0.09,1.04,0.26,1.37
				c0.17,0.33,0.44,0.59,0.8,0.75c0.22,0.1,0.56,0.16,1.03,0.18c0.47,0.02,0.9,0.03,1.29,0.03V41.79z M136.5,31.72
				c-0.72,0.25-1.44,0.53-2.15,0.84c-0.71,0.32-1.29,0.65-1.75,1c-0.48,0.36-0.85,0.82-1.12,1.38c-0.27,0.56-0.41,1.22-0.41,1.99
				c0,1.01,0.23,1.74,0.69,2.19c0.46,0.45,1.02,0.68,1.7,0.68c0.71,0,1.3-0.15,1.76-0.44c0.46-0.29,0.86-0.65,1.21-1.08L136.5,31.72
				z"/>
			<path fill="#F4E4E9" d="M183.63,33.4l-0.54,8.79h-25.26v-1.51c0.45-0.04,0.98-0.1,1.58-0.18c0.61-0.08,1-0.16,1.2-0.24
				c0.46-0.18,0.79-0.43,0.97-0.75c0.18-0.32,0.27-0.73,0.27-1.24V18.93c0-0.46-0.07-0.85-0.21-1.15c-0.14-0.3-0.48-0.58-1.02-0.82
				c-0.4-0.18-0.88-0.33-1.44-0.43c-0.56-0.11-1.01-0.19-1.34-0.24v-1.51h15.05v1.51c-0.41,0.04-0.9,0.09-1.46,0.16
				c-0.56,0.07-1.05,0.17-1.46,0.3c-0.5,0.17-0.84,0.43-1,0.78c-0.17,0.35-0.25,0.76-0.25,1.21v18.03c0,0.85,0.06,1.52,0.17,2.01
				c0.12,0.49,0.34,0.85,0.68,1.08c0.33,0.24,0.8,0.4,1.4,0.47c0.6,0.07,1.43,0.11,2.48,0.11c1.03,0,2.03-0.06,3-0.18
				c0.97-0.12,1.67-0.39,2.1-0.8c0.66-0.66,1.33-1.58,2.02-2.77c0.69-1.19,1.24-2.28,1.65-3.28H183.63z"/>
			<path fill="#F4E4E9" d="M205.52,37.57c-0.45,0.73-1,1.43-1.63,2.08c-0.64,0.65-1.36,1.21-2.17,1.67
				c-0.86,0.49-1.74,0.86-2.62,1.11c-0.88,0.25-1.9,0.38-3.04,0.38c-1.91,0-3.55-0.27-4.94-0.81c-1.38-0.54-2.53-1.27-3.43-2.18
				c-0.9-0.91-1.57-1.99-2.02-3.24c-0.44-1.24-0.67-2.59-0.67-4.05c0-1.31,0.24-2.57,0.72-3.78c0.48-1.2,1.17-2.28,2.06-3.22
				c0.88-0.91,1.98-1.66,3.31-2.22c1.33-0.57,2.82-0.85,4.47-0.85c1.8,0,3.28,0.22,4.44,0.66c1.16,0.44,2.12,1.04,2.88,1.82
				c0.73,0.73,1.27,1.6,1.6,2.6c0.33,1,0.5,2.05,0.5,3.14v1.26h-13.06c0,2.64,0.51,4.65,1.53,6.03c1.02,1.38,2.63,2.07,4.85,2.07
				c1.21,0,2.3-0.33,3.27-1s1.79-1.5,2.47-2.52L205.52,37.57z M198.14,30.23c0-0.77-0.04-1.57-0.12-2.38
				c-0.08-0.81-0.21-1.48-0.41-1.99c-0.22-0.61-0.52-1.06-0.9-1.37s-0.86-0.46-1.44-0.46c-0.99,0-1.78,0.5-2.38,1.51
				c-0.59,1-0.91,2.6-0.97,4.77L198.14,30.23z"/>
			<path fill="#F4E4E9" d="M232.88,42.19h-11.61v-1.41c0.24-0.03,0.54-0.06,0.89-0.1s0.61-0.1,0.79-0.19
				c0.27-0.14,0.46-0.35,0.58-0.62c0.12-0.27,0.17-0.67,0.17-1.2v-9.04c0-1.31-0.24-2.3-0.73-2.97s-1.2-1-2.14-1
				c-0.52,0-1,0.08-1.44,0.23c-0.45,0.15-0.88,0.38-1.31,0.68c-0.37,0.26-0.68,0.52-0.9,0.79c-0.23,0.27-0.42,0.51-0.57,0.71v10.38
				c0,0.45,0.06,0.83,0.19,1.13c0.13,0.3,0.34,0.53,0.64,0.69c0.21,0.12,0.46,0.22,0.77,0.31c0.31,0.09,0.61,0.15,0.91,0.19v1.41
				h-11.75v-1.41c0.32-0.03,0.65-0.06,0.98-0.11c0.33-0.05,0.61-0.11,0.84-0.18c0.41-0.14,0.7-0.36,0.85-0.66
				c0.15-0.3,0.23-0.68,0.23-1.16V27.43c0-0.4-0.1-0.79-0.31-1.18c-0.21-0.39-0.48-0.7-0.81-0.95c-0.23-0.15-0.52-0.28-0.88-0.39
				s-0.74-0.17-1.17-0.21v-1.41l9.22-0.5l0.29,0.29v2.8h0.08c0.36-0.32,0.8-0.71,1.31-1.16c0.52-0.45,0.99-0.82,1.43-1.1
				c0.48-0.31,1.1-0.57,1.87-0.79c0.77-0.22,1.6-0.33,2.47-0.33c2.1,0,3.67,0.6,4.72,1.79c1.05,1.19,1.57,2.77,1.57,4.74v9.47
				c0,0.48,0.07,0.86,0.21,1.14c0.14,0.28,0.41,0.51,0.79,0.68c0.21,0.09,0.46,0.18,0.76,0.27c0.3,0.09,0.65,0.15,1.03,0.19V42.19z"
				/>
			<path fill="#F4E4E9" d="M260.19,42.19h-11.61v-1.41c0.24-0.03,0.54-0.06,0.89-0.1s0.61-0.1,0.79-0.19
				c0.27-0.14,0.46-0.35,0.58-0.62c0.12-0.27,0.17-0.67,0.17-1.2v-9.04c0-1.31-0.24-2.3-0.73-2.97s-1.2-1-2.14-1
				c-0.52,0-1,0.08-1.44,0.23c-0.45,0.15-0.88,0.38-1.31,0.68c-0.37,0.26-0.68,0.52-0.9,0.79c-0.23,0.27-0.42,0.51-0.57,0.71v10.38
				c0,0.45,0.06,0.83,0.19,1.13c0.13,0.3,0.34,0.53,0.64,0.69c0.21,0.12,0.46,0.22,0.77,0.31c0.31,0.09,0.61,0.15,0.91,0.19v1.41
				h-11.75v-1.41c0.32-0.03,0.65-0.06,0.98-0.11c0.33-0.05,0.61-0.11,0.84-0.18c0.41-0.14,0.7-0.36,0.85-0.66
				c0.15-0.3,0.23-0.68,0.23-1.16V27.43c0-0.4-0.1-0.79-0.31-1.18c-0.21-0.39-0.48-0.7-0.81-0.95c-0.23-0.15-0.52-0.28-0.88-0.39
				s-0.74-0.17-1.17-0.21v-1.41l9.22-0.5l0.29,0.29v2.8h0.08c0.36-0.32,0.8-0.71,1.31-1.16c0.52-0.45,0.99-0.82,1.43-1.1
				c0.48-0.31,1.1-0.57,1.87-0.79c0.77-0.22,1.6-0.33,2.47-0.33c2.1,0,3.67,0.6,4.72,1.79c1.05,1.19,1.57,2.77,1.57,4.74v9.47
				c0,0.48,0.07,0.86,0.21,1.14c0.14,0.28,0.41,0.51,0.79,0.68c0.21,0.09,0.46,0.18,0.76,0.27c0.3,0.09,0.65,0.15,1.03,0.19V42.19z"
				/>
			<path fill="#F4E4E9" d="M283.82,24.43c-0.58,0.09-1.14,0.31-1.69,0.66c-0.55,0.35-1,0.89-1.36,1.62
				c-1.11,2.34-2.25,4.84-3.42,7.49c-1.17,2.65-2.47,5.51-3.9,8.59c-0.8,1.73-1.57,3.1-2.32,4.14c-0.75,1.03-1.45,1.82-2.11,2.38
				c-0.62,0.51-1.23,0.89-1.84,1.12c-0.61,0.23-1.22,0.35-1.84,0.35c-1.22,0-2.21-0.34-2.97-1.02c-0.75-0.68-1.13-1.45-1.13-2.3
				c0-0.36,0.04-0.7,0.13-1c0.08-0.31,0.26-0.63,0.53-0.97c0.21-0.28,0.52-0.52,0.96-0.72c0.43-0.2,0.92-0.3,1.46-0.3
				c0.72,0,1.41,0.25,2.07,0.75c0.66,0.5,1.34,1.2,2.05,2.09c0.42-0.43,0.95-1.06,1.57-1.91c0.62-0.85,1.08-1.71,1.38-2.61
				c-1.53-3.22-2.89-6.01-4.07-8.37c-1.18-2.36-2.51-5-3.98-7.91c-0.32-0.62-0.75-1.1-1.29-1.44c-0.54-0.34-1.11-0.55-1.72-0.63
				v-1.41h11.83v1.41c-0.44,0.01-0.94,0.11-1.51,0.29c-0.57,0.18-0.86,0.41-0.86,0.7c0,0.1,0.02,0.22,0.06,0.34
				c0.04,0.12,0.11,0.3,0.21,0.53c0.44,0.9,1.06,2.15,1.86,3.75c0.8,1.6,1.74,3.47,2.81,5.62c0.8-1.82,1.48-3.39,2.03-4.71
				c0.56-1.32,1.1-2.61,1.63-3.88c0.13-0.32,0.2-0.57,0.22-0.76c0.02-0.19,0.03-0.31,0.03-0.38c0-0.23-0.11-0.43-0.34-0.61
				c-0.22-0.17-0.49-0.33-0.8-0.45c-0.32-0.13-0.63-0.23-0.93-0.29c-0.3-0.06-0.54-0.11-0.73-0.14v-1.41h7.98V24.43z"/>
			<path fill="#F4E4E9" d="M285,24.82c1.46-0.71,2.61-1.53,3.43-2.47c0.83-0.94,1.31-2.08,1.44-3.42h-1.09
				c-0.8,0-1.46-0.09-1.96-0.27c-0.5-0.18-0.91-0.43-1.22-0.75c-0.3-0.3-0.51-0.63-0.63-1.01c-0.12-0.38-0.18-0.77-0.18-1.17
				c0-0.82,0.33-1.55,1-2.16c0.66-0.62,1.45-0.93,2.35-0.93c1.42,0,2.51,0.47,3.27,1.41c0.76,0.94,1.14,2.24,1.14,3.9
				c0,1.55-0.66,3.1-1.97,4.68c-1.31,1.57-2.89,2.76-4.74,3.57L285,24.82z"/>
			<path fill="#F4E4E9" d="M303.8,42.85c-1.25,0-2.47-0.18-3.66-0.55s-2.12-0.76-2.77-1.17l-0.58,1.31h-1.51l-0.25-7.21h1.41
				c0.19,0.58,0.52,1.23,0.97,1.96c0.45,0.73,0.97,1.38,1.55,1.96c0.61,0.58,1.3,1.07,2.08,1.47c0.78,0.4,1.61,0.6,2.5,0.6
				c1.17,0,2.05-0.23,2.62-0.69c0.57-0.46,0.86-1.16,0.86-2.12c0-0.52-0.13-0.94-0.39-1.28c-0.26-0.33-0.61-0.62-1.06-0.87
				c-0.5-0.26-1.05-0.48-1.65-0.66c-0.6-0.18-1.34-0.4-2.21-0.66c-0.88-0.26-1.63-0.52-2.25-0.78c-0.62-0.26-1.27-0.68-1.94-1.25
				c-0.58-0.5-1.04-1.11-1.39-1.82c-0.35-0.71-0.52-1.55-0.52-2.53c0-1.82,0.76-3.28,2.29-4.41c1.53-1.12,3.53-1.68,6-1.68
				c1.17,0,2.25,0.12,3.24,0.36s1.81,0.5,2.48,0.78L310,22.5h1.47l0.31,6.59h-1.35c-0.45-1.34-1.22-2.5-2.32-3.47
				s-2.27-1.46-3.54-1.46c-0.99,0-1.77,0.21-2.34,0.62c-0.57,0.41-0.85,0.99-0.85,1.72c0,0.98,0.41,1.69,1.24,2.13
				c0.83,0.44,1.99,0.85,3.48,1.24c2.3,0.59,3.99,1.4,5.05,2.43c1.07,1.02,1.6,2.33,1.6,3.91c0,2.11-0.83,3.75-2.48,4.91
				C308.63,42.27,306.47,42.85,303.8,42.85z"/>
		</g>
		<g>
			<path fill="#F4E4E9" d="M93.8,83.18c-1.67,0-3.24-0.21-4.69-0.63c-1.45-0.42-2.68-0.91-3.68-1.48l-1.33,1.35h-1.64l-0.25-9.91
				h1.66c0.37,0.94,0.85,1.94,1.43,2.98c0.58,1.05,1.25,1.98,2.01,2.81c0.79,0.87,1.66,1.57,2.64,2.11
				c0.97,0.54,2.11,0.81,3.41,0.81c1.75,0,3.09-0.43,4.03-1.29c0.93-0.86,1.4-1.94,1.4-3.24c0-1.07-0.4-1.97-1.19-2.7
				c-0.79-0.73-2.02-1.36-3.68-1.89c-1.08-0.35-2.08-0.67-2.99-0.97c-0.91-0.3-1.76-0.6-2.56-0.91c-1.84-0.74-3.21-1.79-4.11-3.15
				c-0.9-1.37-1.34-2.9-1.34-4.59c0-1.07,0.23-2.1,0.7-3.09c0.46-0.99,1.14-1.87,2.03-2.66c0.85-0.73,1.94-1.33,3.27-1.8
				c1.33-0.46,2.77-0.7,4.33-0.7c1.52,0,2.94,0.21,4.27,0.64c1.33,0.43,2.37,0.85,3.13,1.28l1.18-1.16h1.68l0.15,9.35H102
				c-0.39-1.01-0.84-2.04-1.36-3.09c-0.52-1.05-1.07-1.93-1.65-2.62c-0.63-0.75-1.36-1.35-2.18-1.79c-0.82-0.45-1.79-0.67-2.9-0.67
				c-1.39,0-2.53,0.39-3.41,1.18c-0.88,0.79-1.32,1.76-1.32,2.92c0,1.1,0.38,1.99,1.15,2.69c0.77,0.7,1.96,1.31,3.58,1.84
				c0.95,0.32,1.93,0.64,2.92,0.97c0.99,0.32,1.87,0.63,2.65,0.93c1.87,0.72,3.29,1.72,4.26,2.99c0.97,1.27,1.46,2.85,1.46,4.73
				c0,1.19-0.28,2.34-0.83,3.44c-0.55,1.11-1.3,2.03-2.24,2.77c-1.03,0.81-2.22,1.44-3.57,1.88C97.19,82.96,95.61,83.18,93.8,83.18z
				"/>
			<path fill="#F4E4E9" d="M129.86,82.02c-0.57,0.24-1.23,0.47-2.01,0.68c-0.77,0.21-1.59,0.31-2.45,0.31
				c-1.58,0-2.74-0.24-3.49-0.71c-0.75-0.47-1.25-1.14-1.52-2.02h-0.12c-0.44,0.44-0.86,0.81-1.27,1.12
				c-0.41,0.31-0.84,0.57-1.31,0.79c-0.61,0.28-1.19,0.5-1.75,0.64c-0.56,0.14-1.34,0.21-2.35,0.21c-1.5,0-2.77-0.44-3.83-1.33
				c-1.06-0.88-1.59-2.05-1.59-3.51c0-0.84,0.12-1.55,0.35-2.14c0.23-0.59,0.56-1.11,0.99-1.56c0.39-0.41,0.84-0.75,1.34-1.03
				c0.51-0.27,1.07-0.52,1.67-0.75c1.16-0.43,2.55-0.87,4.18-1.33c1.63-0.46,2.81-0.87,3.56-1.23v-1.86c0-0.32-0.03-0.75-0.08-1.28
				c-0.05-0.53-0.16-0.97-0.33-1.33c-0.18-0.41-0.46-0.76-0.85-1.04c-0.39-0.28-0.9-0.43-1.53-0.43c-0.57,0-1.04,0.08-1.42,0.24
				c-0.38,0.16-0.69,0.33-0.92,0.49c0.04,0.26,0.15,0.65,0.33,1.18c0.18,0.53,0.27,1.04,0.27,1.53c0,0.22-0.06,0.49-0.17,0.82
				c-0.12,0.33-0.28,0.59-0.5,0.78c-0.3,0.26-0.63,0.46-1,0.6c-0.37,0.14-0.93,0.21-1.7,0.21c-1.09,0-1.91-0.26-2.46-0.78
				c-0.56-0.52-0.83-1.2-0.83-2.04c0-0.72,0.29-1.37,0.86-1.94c0.57-0.57,1.27-1.05,2.1-1.42c0.81-0.39,1.75-0.69,2.8-0.9
				c1.06-0.21,2.04-0.32,2.94-0.32c1.25,0,2.4,0.07,3.44,0.22c1.04,0.15,1.98,0.45,2.82,0.92c0.8,0.45,1.43,1.1,1.9,1.96
				c0.47,0.86,0.71,1.97,0.71,3.35c0,1.46-0.03,3.18-0.09,5.18c-0.06,2-0.09,3.31-0.09,3.94c0,0.58,0.09,1.04,0.26,1.37
				s0.44,0.59,0.8,0.75c0.22,0.1,0.56,0.16,1.03,0.18c0.47,0.02,0.9,0.03,1.29,0.03V82.02z M120.28,71.95
				c-0.72,0.25-1.44,0.53-2.15,0.84c-0.71,0.32-1.29,0.65-1.75,1c-0.48,0.36-0.85,0.82-1.12,1.38c-0.27,0.56-0.41,1.22-0.41,1.99
				c0,1.01,0.23,1.74,0.69,2.19c0.46,0.45,1.02,0.68,1.7,0.68c0.71,0,1.3-0.15,1.76-0.44s0.86-0.65,1.21-1.08L120.28,71.95z"/>
			<path fill="#F4E4E9" d="M156.86,82.43h-11.61v-1.41c0.24-0.03,0.54-0.06,0.89-0.1c0.35-0.04,0.61-0.1,0.79-0.19
				c0.27-0.14,0.46-0.35,0.58-0.62c0.12-0.27,0.17-0.67,0.17-1.2v-9.04c0-1.31-0.24-2.3-0.73-2.97c-0.48-0.66-1.2-1-2.14-1
				c-0.52,0-1,0.08-1.44,0.23c-0.45,0.15-0.88,0.38-1.31,0.68c-0.37,0.26-0.68,0.52-0.9,0.79c-0.23,0.27-0.42,0.51-0.57,0.71V78.7
				c0,0.45,0.06,0.83,0.19,1.13c0.13,0.3,0.34,0.53,0.64,0.69c0.21,0.12,0.46,0.22,0.77,0.31c0.31,0.09,0.61,0.15,0.91,0.19v1.41
				h-11.75v-1.41c0.32-0.03,0.65-0.06,0.98-0.11c0.33-0.05,0.61-0.11,0.84-0.18c0.41-0.14,0.7-0.36,0.85-0.66
				c0.15-0.3,0.23-0.68,0.23-1.16V67.66c0-0.4-0.1-0.79-0.31-1.18c-0.21-0.39-0.48-0.7-0.81-0.95c-0.23-0.15-0.52-0.28-0.88-0.39
				c-0.35-0.1-0.74-0.17-1.17-0.21v-1.41l9.22-0.5l0.29,0.29v2.8h0.08c0.36-0.32,0.8-0.71,1.31-1.16c0.51-0.45,0.99-0.82,1.43-1.1
				c0.48-0.31,1.1-0.57,1.87-0.79c0.77-0.22,1.6-0.33,2.47-0.33c2.1,0,3.67,0.6,4.72,1.79c1.05,1.19,1.57,2.77,1.57,4.74v9.47
				c0,0.48,0.07,0.86,0.21,1.14c0.14,0.28,0.41,0.51,0.79,0.68c0.21,0.09,0.46,0.18,0.76,0.27c0.3,0.09,0.65,0.15,1.03,0.19V82.43z"
				/>
			<path fill="#F4E4E9" d="M183.62,82.02l-9.53,0.56l-0.29-0.27v-1.78l-0.13-0.04c-0.63,0.68-1.48,1.28-2.56,1.79
				c-1.07,0.51-2.16,0.76-3.25,0.76c-2.6,0-4.74-0.97-6.43-2.9c-1.69-1.93-2.53-4.43-2.53-7.5c0-2.72,0.94-5.05,2.83-7
				c1.88-1.95,4.17-2.92,6.84-2.92c1.05,0,2.05,0.12,2.97,0.36c0.93,0.24,1.67,0.52,2.22,0.84v-6.32c0-0.48-0.1-0.92-0.29-1.34
				c-0.19-0.42-0.45-0.74-0.77-0.98c-0.4-0.28-0.9-0.49-1.5-0.61c-0.6-0.12-1.2-0.21-1.81-0.26v-1.41l10.45-0.5l0.29,0.31v25.33
				c0,0.49,0.08,0.9,0.24,1.24s0.42,0.6,0.78,0.79c0.27,0.14,0.66,0.24,1.18,0.31c0.52,0.06,0.94,0.1,1.28,0.12V82.02z
				 M173.76,78.58V67.66c-0.09-0.3-0.22-0.62-0.38-0.99s-0.38-0.7-0.67-1.02c-0.26-0.27-0.6-0.51-1.03-0.71
				c-0.43-0.21-0.92-0.31-1.46-0.31c-1.29,0-2.34,0.73-3.16,2.18c-0.82,1.46-1.23,3.51-1.23,6.16c0,1.04,0.07,1.98,0.22,2.81
				s0.41,1.59,0.78,2.27s0.85,1.22,1.44,1.6c0.58,0.39,1.29,0.58,2.11,0.58c0.78,0,1.43-0.15,1.95-0.45
				C172.85,79.48,173.33,79.08,173.76,78.58z"/>
			<path fill="#F4E4E9" d="M218.21,64.67c-0.59,0.09-1.14,0.29-1.64,0.59s-0.93,0.87-1.28,1.69c-0.9,2.2-1.62,3.98-2.16,5.33
				s-1.3,3.3-2.28,5.86c-0.21,0.53-0.45,1.26-0.74,2.18c-0.29,0.93-0.52,1.69-0.69,2.28h-3.78l-4.87-13.16l-4.56,13.16h-3.72
				c-1.3-3.52-2.33-6.24-3.07-8.18s-1.75-4.5-3-7.68c-0.23-0.61-0.63-1.08-1.19-1.43c-0.56-0.35-1.14-0.56-1.73-0.64v-1.41h11.86
				v1.41c-0.44,0.04-0.96,0.14-1.57,0.31c-0.61,0.17-0.91,0.39-0.91,0.68c0,0.13,0.02,0.24,0.05,0.34c0.03,0.1,0.09,0.27,0.16,0.53
				c0.35,1.01,0.83,2.31,1.43,3.9c0.61,1.59,1.32,3.45,2.13,5.57l4.29-12.73h3.83l4.88,13.13c0.75-1.98,1.32-3.54,1.73-4.68
				c0.41-1.14,0.92-2.61,1.53-4.41c0.09-0.27,0.14-0.51,0.16-0.72c0.02-0.21,0.02-0.35,0.01-0.42c0-0.23-0.12-0.44-0.35-0.63
				c-0.23-0.19-0.51-0.34-0.83-0.45c-0.32-0.12-0.63-0.21-0.94-0.27c-0.3-0.06-0.56-0.11-0.76-0.14v-1.41h7.98V64.67z"/>
			<path fill="#F4E4E9" d="M231.27,82.43h-12.21v-1.41c0.33-0.03,0.66-0.06,0.99-0.1c0.32-0.04,0.6-0.1,0.83-0.19
				c0.41-0.15,0.7-0.38,0.87-0.67c0.17-0.29,0.25-0.67,0.25-1.15V67.66c0-0.45-0.1-0.85-0.31-1.19c-0.21-0.34-0.46-0.62-0.77-0.82
				c-0.23-0.15-0.58-0.3-1.05-0.44c-0.47-0.14-0.9-0.23-1.29-0.27v-1.41l9.47-0.5l0.29,0.29v15.34c0,0.45,0.1,0.83,0.29,1.15
				c0.19,0.32,0.47,0.55,0.83,0.71c0.26,0.12,0.54,0.22,0.85,0.31c0.31,0.09,0.63,0.15,0.97,0.19V82.43z M228.45,56.07
				c0,0.98-0.38,1.81-1.13,2.5c-0.75,0.69-1.65,1.03-2.68,1.03c-1.04,0-1.94-0.34-2.7-1.03c-0.75-0.69-1.13-1.52-1.13-2.5
				c0-0.98,0.38-1.82,1.13-2.51s1.65-1.04,2.7-1.04c1.04,0,1.94,0.35,2.69,1.04S228.45,55.09,228.45,56.07z"/>
			<path fill="#F4E4E9" d="M244.08,83.04c-1.79,0-3.37-0.26-4.74-0.78c-1.37-0.52-2.5-1.23-3.39-2.14c-0.89-0.91-1.55-2-1.99-3.25
				c-0.44-1.25-0.66-2.61-0.66-4.08c0-1.34,0.27-2.62,0.8-3.83s1.26-2.27,2.17-3.19c0.94-0.94,2.11-1.69,3.51-2.25
				c1.4-0.56,2.94-0.84,4.63-0.84c2.37,0,4.24,0.45,5.62,1.34c1.38,0.9,2.07,2.1,2.07,3.62c0,0.93-0.24,1.67-0.73,2.24
				c-0.49,0.57-1.33,0.85-2.53,0.85c-0.97,0-1.77-0.23-2.43-0.7s-0.98-1.07-0.98-1.82c0-0.63,0.1-1.26,0.31-1.87
				c0.21-0.62,0.33-1.09,0.37-1.41c-0.14-0.23-0.32-0.41-0.54-0.53c-0.22-0.12-0.56-0.18-1.02-0.18c-0.58,0-1.11,0.14-1.58,0.41
				c-0.48,0.27-0.92,0.75-1.33,1.43c-0.4,0.64-0.72,1.51-0.96,2.59s-0.36,2.38-0.36,3.9c0,2.29,0.54,4.14,1.61,5.55
				c1.08,1.4,2.36,2.11,3.86,2.11c1.43,0,2.57-0.32,3.41-0.96s1.59-1.54,2.25-2.71l1.45,1c-0.4,0.79-0.88,1.5-1.43,2.15
				c-0.55,0.65-1.22,1.23-1.99,1.73c-0.81,0.53-1.64,0.93-2.47,1.2C246.16,82.91,245.19,83.04,244.08,83.04z"/>
			<path fill="#F4E4E9" d="M279.19,82.43h-11.61v-1.41c0.26-0.03,0.56-0.06,0.91-0.1c0.35-0.04,0.61-0.1,0.77-0.19
				c0.27-0.14,0.46-0.35,0.57-0.62c0.11-0.27,0.16-0.67,0.16-1.2v-9.04c0-1.33-0.25-2.32-0.74-2.98s-1.2-0.99-2.12-0.99
				c-0.52,0-1,0.08-1.44,0.23c-0.44,0.15-0.88,0.38-1.3,0.68c-0.37,0.26-0.67,0.52-0.9,0.79c-0.23,0.27-0.42,0.51-0.57,0.71V78.7
				c0,0.48,0.06,0.85,0.17,1.13s0.33,0.51,0.66,0.69c0.19,0.12,0.45,0.22,0.76,0.31c0.32,0.09,0.62,0.15,0.92,0.19v1.41h-11.79
				v-1.41c0.34-0.03,0.66-0.06,0.98-0.1c0.32-0.04,0.6-0.1,0.85-0.19c0.41-0.15,0.7-0.38,0.85-0.67c0.15-0.29,0.22-0.67,0.22-1.15
				V57.36c0-0.41-0.1-0.85-0.29-1.31c-0.19-0.46-0.46-0.81-0.81-1.04c-0.26-0.17-0.63-0.3-1.12-0.4c-0.49-0.1-0.93-0.16-1.31-0.18
				v-1.41l9.62-0.5l0.29,0.31v13.29H263c0.49-0.44,0.93-0.83,1.32-1.19c0.39-0.35,0.87-0.71,1.44-1.07c0.48-0.31,1.1-0.57,1.86-0.79
				c0.77-0.22,1.59-0.33,2.48-0.33c2.08,0,3.65,0.6,4.7,1.8c1.05,1.2,1.57,2.78,1.57,4.73v9.47c0,0.48,0.07,0.86,0.21,1.14
				s0.41,0.51,0.79,0.68c0.23,0.1,0.49,0.19,0.77,0.27c0.28,0.08,0.63,0.14,1.04,0.19V82.43z"/>
		</g>
	</g>
</g>
</svg>
