<?xml version="1.0" encoding="utf-8"?>
<!-- Generator: Adobe Illustrator 23.0.1, SVG Export Plug-In . SVG Version: 6.00 Build 0)  -->
<svg version="1.1" id="Lager_1" xmlns="http://www.w3.org/2000/svg" xmlns:xlink="http://www.w3.org/1999/xlink" x="0px" y="0px"
	 viewBox="0 0 338 338.6" enable-background="new 0 0 338 338.6" xml:space="preserve">
<circle fill="#D3909C" cx="169" cy="184.23" r="154.37"/>
<polygon fill="#F9F4F5" points="310.23,230.81 280.07,229.91 57.33,229.91 27.17,230.81 57.33,200.65 139.1,177.97 139.1,177.96 
	139.11,177.96 139.11,173.78 198.3,173.78 198.3,177.97 280.07,200.65 "/>
<polygon fill="#EFD8DF" points="198.3,173.78 198.3,174.86 193.43,177.96 186.23,182.54 150.88,182.54 143.67,177.96 139.11,175.06 
	139.11,173.78 "/>
<path fill="#352501" stroke="#5E3F00" stroke-width="2" stroke-miterlimit="10" d="M319.43,229.91H17.97c0,6.6-5.4,12-12,12v27.69
	c6.6,0,12,5.4,12,12h301.46c0-6.6,5.4-12,12-12v-27.69C324.83,241.91,319.43,236.51,319.43,229.91z"/>
<g>
	<path fill="#EDD9DE" d="M67.1,250.61c0,1.4-0.29,2.6-0.87,3.61c-0.58,1.01-1.37,1.83-2.39,2.46c-1.05,0.65-2.25,1.13-3.6,1.42
		c-1.35,0.29-2.86,0.44-4.54,0.44h-2.03v6.98c0,0.42,0.08,0.78,0.24,1.09c0.16,0.31,0.46,0.56,0.9,0.74
		c0.23,0.09,0.61,0.19,1.14,0.3s0.97,0.17,1.33,0.21v1.36H43.83v-1.36c0.34-0.03,0.79-0.08,1.35-0.15c0.56-0.06,0.95-0.14,1.17-0.24
		c0.45-0.19,0.75-0.41,0.9-0.68c0.15-0.27,0.22-0.64,0.22-1.12v-17.51c0-0.41-0.07-0.76-0.21-1.06s-0.44-0.55-0.91-0.74
		c-0.33-0.14-0.76-0.26-1.3-0.38c-0.54-0.11-0.95-0.18-1.22-0.22v-1.36h13.7c3.21,0,5.6,0.51,7.19,1.53
		C66.3,246.95,67.1,248.51,67.1,250.61z M60.27,251.5c0-1.87-0.38-3.25-1.13-4.15c-0.75-0.9-2.09-1.36-4.02-1.36h-1.45v10.9h0.73
		c1.91,0,3.37-0.44,4.37-1.32C59.77,254.69,60.27,253.33,60.27,251.5z"/>
	<path fill="#EDD9DE" d="M95.89,269.22H82.37v-1.36c0.63-0.05,1.37-0.16,2.22-0.34c0.85-0.18,1.27-0.41,1.27-0.67
		c0-0.09-0.01-0.2-0.03-0.31c-0.02-0.12-0.07-0.27-0.15-0.47l-2.12-5.14H75c-0.2,0.48-0.41,1.04-0.65,1.68
		c-0.24,0.64-0.44,1.21-0.62,1.71c-0.22,0.65-0.35,1.13-0.39,1.42c-0.04,0.29-0.06,0.5-0.06,0.61c0,0.37,0.28,0.69,0.85,0.95
		c0.57,0.26,1.51,0.45,2.82,0.57v1.36H66.76v-1.36c0.38-0.02,0.82-0.08,1.3-0.18c0.48-0.1,0.87-0.24,1.15-0.41
		c0.48-0.28,0.88-0.62,1.22-1.03c0.33-0.41,0.61-0.89,0.83-1.45c1.35-3.28,2.71-6.56,4.07-9.85c1.36-3.29,2.86-6.92,4.51-10.88h3.5
		c2.29,5.62,4.08,10.07,5.37,13.33c1.29,3.27,2.4,5.97,3.31,8.12c0.15,0.35,0.34,0.67,0.58,0.95c0.23,0.29,0.57,0.56,1,0.81
		c0.33,0.19,0.71,0.33,1.14,0.42c0.43,0.09,0.82,0.15,1.17,0.17V269.22z M82.85,259.18l-3.59-8.97l-3.54,8.97H82.85z"/>
	<path fill="#EDD9DE" d="M119.39,250.61c0,1.4-0.29,2.6-0.87,3.61c-0.58,1.01-1.37,1.83-2.39,2.46c-1.05,0.65-2.25,1.13-3.6,1.42
		c-1.35,0.29-2.86,0.44-4.54,0.44h-2.03v6.98c0,0.42,0.08,0.78,0.24,1.09c0.16,0.31,0.46,0.56,0.9,0.74
		c0.23,0.09,0.61,0.19,1.14,0.3s0.97,0.17,1.33,0.21v1.36H96.12v-1.36c0.34-0.03,0.79-0.08,1.35-0.15c0.56-0.06,0.95-0.14,1.17-0.24
		c0.45-0.19,0.75-0.41,0.9-0.68c0.15-0.27,0.22-0.64,0.22-1.12v-17.51c0-0.41-0.07-0.76-0.21-1.06s-0.44-0.55-0.91-0.74
		c-0.33-0.14-0.76-0.26-1.3-0.38c-0.54-0.11-0.95-0.18-1.22-0.22v-1.36h13.7c3.21,0,5.6,0.51,7.19,1.53
		C118.6,246.95,119.39,248.51,119.39,250.61z M112.57,251.5c0-1.87-0.38-3.25-1.13-4.15s-2.09-1.36-4.02-1.36h-1.45v10.9h0.73
		c1.91,0,3.37-0.44,4.37-1.32C112.07,254.69,112.57,253.33,112.57,251.5z"/>
	<path fill="#EDD9DE" d="M148.19,269.22h-13.52v-1.36c0.63-0.05,1.37-0.16,2.22-0.34c0.85-0.18,1.27-0.41,1.27-0.67
		c0-0.09-0.01-0.2-0.03-0.31c-0.02-0.12-0.07-0.27-0.15-0.47l-2.12-5.14h-8.57c-0.2,0.48-0.41,1.04-0.65,1.68
		c-0.24,0.64-0.44,1.21-0.62,1.71c-0.22,0.65-0.35,1.13-0.39,1.42c-0.04,0.29-0.06,0.5-0.06,0.61c0,0.37,0.28,0.69,0.85,0.95
		c0.57,0.26,1.51,0.45,2.82,0.57v1.36h-10.18v-1.36c0.38-0.02,0.82-0.08,1.3-0.18c0.48-0.1,0.87-0.24,1.15-0.41
		c0.48-0.28,0.88-0.62,1.22-1.03c0.33-0.41,0.61-0.89,0.83-1.45c1.35-3.28,2.71-6.56,4.07-9.85c1.36-3.29,2.86-6.92,4.51-10.88h3.5
		c2.29,5.62,4.08,10.07,5.37,13.33c1.29,3.27,2.4,5.97,3.31,8.12c0.15,0.35,0.34,0.67,0.58,0.95c0.23,0.29,0.57,0.56,1,0.81
		c0.33,0.19,0.71,0.33,1.14,0.42c0.43,0.09,0.82,0.15,1.17,0.17V269.22z M135.14,259.18l-3.59-8.97l-3.54,8.97H135.14z"/>
	<path fill="#EDD9DE" d="M180.87,261.26l-0.49,7.96h-22.87v-1.36c0.41-0.03,0.89-0.09,1.43-0.17c0.55-0.08,0.91-0.15,1.08-0.22
		c0.42-0.16,0.71-0.39,0.87-0.68c0.16-0.29,0.24-0.66,0.24-1.12v-17.51c0-0.42-0.06-0.77-0.19-1.04c-0.13-0.27-0.44-0.52-0.93-0.74
		c-0.36-0.16-0.8-0.29-1.3-0.39c-0.51-0.1-0.91-0.17-1.22-0.22v-1.36h13.63v1.36c-0.37,0.03-0.81,0.09-1.32,0.15
		c-0.51,0.06-0.95,0.15-1.32,0.27c-0.45,0.15-0.76,0.39-0.91,0.71c-0.15,0.32-0.23,0.68-0.23,1.09v16.32c0,0.77,0.05,1.38,0.16,1.82
		c0.1,0.44,0.31,0.77,0.61,0.98c0.3,0.22,0.73,0.37,1.27,0.43c0.54,0.06,1.29,0.1,2.25,0.1c0.93,0,1.84-0.05,2.72-0.17
		c0.88-0.11,1.51-0.35,1.9-0.73c0.59-0.59,1.2-1.43,1.83-2.51c0.62-1.08,1.12-2.07,1.5-2.97H180.87z"/>
	<path fill="#EDD9DE" d="M204.08,250.73h-1.33c-0.34-0.94-0.92-1.89-1.75-2.86c-0.83-0.96-1.65-1.53-2.47-1.71
		c-0.35-0.08-0.84-0.13-1.46-0.15c-0.62-0.02-1.14-0.03-1.55-0.03h-3.6v9.57h2.55c0.64,0,1.22-0.08,1.75-0.23
		c0.52-0.15,1-0.44,1.43-0.87c0.27-0.27,0.54-0.74,0.81-1.42c0.27-0.68,0.45-1.27,0.53-1.77h1.33v10.36h-1.33
		c-0.07-0.49-0.25-1.1-0.53-1.85c-0.29-0.74-0.56-1.25-0.81-1.53c-0.38-0.42-0.84-0.71-1.36-0.87c-0.52-0.16-1.13-0.24-1.82-0.24
		h-2.55v7.16c0,0.75,0.05,1.34,0.17,1.78c0.11,0.44,0.32,0.77,0.62,1.01c0.29,0.22,0.69,0.37,1.2,0.44s1.2,0.1,2.07,0.1
		c0.41,0,0.9-0.01,1.47-0.02c0.57-0.01,1.07-0.05,1.5-0.1c0.49-0.06,0.95-0.15,1.37-0.26c0.43-0.12,0.74-0.29,0.95-0.51
		c0.56-0.57,1.19-1.44,1.89-2.61s1.16-2.05,1.38-2.63h1.28l-0.47,7.73h-23.29v-1.36c0.33-0.02,0.77-0.07,1.33-0.14
		c0.56-0.07,0.96-0.15,1.19-0.24c0.44-0.19,0.74-0.42,0.89-0.71c0.15-0.29,0.23-0.65,0.23-1.09v-17.51c0-0.42-0.06-0.77-0.19-1.04
		c-0.13-0.27-0.44-0.52-0.93-0.74c-0.3-0.14-0.73-0.27-1.28-0.38c-0.55-0.12-0.96-0.19-1.24-0.23v-1.36h22.01V250.73z"/>
	<path fill="#EDD9DE" d="M236.43,245.76c-0.33,0.03-0.79,0.1-1.4,0.19c-0.61,0.09-1.15,0.32-1.64,0.68
		c-0.43,0.31-0.74,0.85-0.92,1.62c-0.18,0.76-0.27,1.89-0.27,3.37v17.74h-3.11l-15.47-19.19v11.65c0,1.45,0.1,2.55,0.29,3.3
		c0.19,0.75,0.5,1.3,0.94,1.65c0.31,0.26,0.82,0.48,1.5,0.68c0.69,0.2,1.24,0.33,1.64,0.4v1.36h-10.67v-1.36
		c0.45-0.03,0.98-0.12,1.57-0.25c0.59-0.13,1.08-0.34,1.48-0.62c0.45-0.34,0.77-0.85,0.94-1.53c0.17-0.68,0.25-1.83,0.25-3.44
		v-11.76c0-0.58-0.09-1.13-0.27-1.65c-0.18-0.52-0.46-0.97-0.85-1.34c-0.41-0.4-0.88-0.71-1.41-0.94c-0.53-0.23-1.13-0.41-1.81-0.53
		v-1.4h9.34l13.57,16.79v-9.39c0-1.49-0.1-2.6-0.3-3.33c-0.2-0.73-0.51-1.27-0.94-1.62c-0.34-0.27-0.84-0.5-1.5-0.69
		c-0.66-0.19-1.2-0.32-1.61-0.39v-1.36h10.65V245.76z"/>
	<path fill="#EDD9DE" d="M266.51,245.76c-0.33,0.03-0.79,0.1-1.4,0.19c-0.61,0.09-1.15,0.32-1.64,0.68
		c-0.43,0.31-0.74,0.85-0.92,1.62c-0.18,0.76-0.27,1.89-0.27,3.37v17.74h-3.11l-15.47-19.19v11.65c0,1.45,0.1,2.55,0.29,3.3
		c0.19,0.75,0.5,1.3,0.94,1.65c0.31,0.26,0.82,0.48,1.5,0.68c0.69,0.2,1.24,0.33,1.64,0.4v1.36h-10.67v-1.36
		c0.45-0.03,0.98-0.12,1.57-0.25c0.59-0.13,1.08-0.34,1.48-0.62c0.45-0.34,0.77-0.85,0.94-1.53c0.17-0.68,0.25-1.83,0.25-3.44
		v-11.76c0-0.58-0.09-1.13-0.27-1.65c-0.18-0.52-0.46-0.97-0.85-1.34c-0.41-0.4-0.88-0.71-1.41-0.94c-0.53-0.23-1.13-0.41-1.81-0.53
		v-1.4h9.34l13.57,16.79v-9.39c0-1.49-0.1-2.6-0.3-3.33c-0.2-0.73-0.51-1.27-0.94-1.62c-0.34-0.27-0.84-0.5-1.5-0.69
		s-1.2-0.32-1.61-0.39v-1.36h10.65V245.76z"/>
	<path fill="#EDD9DE" d="M294.25,245.76c-0.42,0.05-0.8,0.12-1.15,0.23c-0.35,0.1-0.68,0.25-1,0.44c-0.5,0.28-0.95,0.64-1.34,1.08
		c-0.39,0.44-0.77,0.92-1.14,1.46c-0.76,1.11-1.55,2.31-2.38,3.61c-0.83,1.3-1.74,2.73-2.72,4.29c-0.64,0.99-1.03,1.75-1.18,2.28
		c-0.15,0.53-0.22,1.45-0.22,2.75v3.52c0,0.42,0.08,0.79,0.24,1.1c0.16,0.31,0.46,0.57,0.9,0.77c0.2,0.08,0.62,0.19,1.26,0.32
		c0.64,0.13,1.11,0.21,1.42,0.24v1.36H273.1v-1.36c0.33-0.02,0.8-0.07,1.41-0.14s1.04-0.15,1.29-0.24c0.43-0.19,0.73-0.43,0.88-0.74
		c0.16-0.31,0.24-0.69,0.24-1.13v-4.37c0-0.38-0.01-0.72-0.02-1.01c-0.01-0.29-0.05-0.54-0.12-0.73c-0.08-0.22-0.22-0.5-0.42-0.85
		c-0.2-0.34-0.45-0.79-0.77-1.34c-0.9-1.57-1.77-3.07-2.61-4.48c-0.84-1.41-1.64-2.74-2.4-3.97c-0.4-0.64-0.8-1.16-1.2-1.55
		c-0.4-0.39-0.81-0.71-1.23-0.95c-0.31-0.17-0.7-0.31-1.15-0.4c-0.45-0.09-0.85-0.15-1.22-0.17v-1.36h14.22v1.36
		c-1.3,0.03-2.18,0.13-2.63,0.27c-0.45,0.15-0.68,0.35-0.68,0.6c0,0.13,0.08,0.38,0.25,0.77c0.17,0.38,0.47,0.98,0.9,1.78
		c0.4,0.76,0.98,1.8,1.74,3.13s1.68,2.88,2.75,4.67c2.21-3.51,3.73-5.96,4.56-7.35c0.83-1.39,1.24-2.25,1.24-2.56
		c0-0.4-0.24-0.7-0.73-0.91c-0.49-0.21-1.27-0.34-2.36-0.4v-1.36h9.2V245.76z"/>
</g>
<ellipse fill="#E8CFD6" cx="168.7" cy="125.41" rx="67.78" ry="53.75"/>
<path fill="#F9F4F5" d="M122.42,86.59c-0.9-11.1-2.73-21.34-7.76-28.6c-10.29,2.19-15.8-3.75-18.51-14.3
	c-1.3-9.7,2.21-16.38,11.35-19.5c6.13-1.95,24.07-6.04,23.89,1.95c12.51-11.77,24.69-19.02,35.23-10.4
	c10.7-10.26,20.59-16.84,34.64-15.6c12.4,5.66,17.56,14.99,14.33,28.6c-1.73,11.45-5.88,17.41-16.72,17.55
	c1.37,4.77,2.46,32.55,2.99,32.5C174.73,77.04,148.21,79.66,122.42,86.59z"/>
<circle fill="#BFB24F" cx="169" cy="196.47" r="4.78"/>
<circle fill="#BFB24F" cx="169" cy="214.39" r="4.78"/>
<path fill="#352501" d="M197.07,119.73c0,3.79-3.08,6.87-6.87,6.87s-6.87-3.08-6.87-6.87c0-0.34,0.02-0.67,0.07-1
	c0.66,0.44,1.46,0.7,2.32,0.7c2.31,0,4.18-1.87,4.18-4.18c0-0.86-0.26-1.65-0.7-2.32c0.32-0.05,0.66-0.07,1-0.07
	C193.99,112.87,197.07,115.94,197.07,119.73z"/>
<path fill="#352501" d="M153.47,119.73c0,3.79-3.08,6.87-6.87,6.87s-6.87-3.08-6.87-6.87c0-0.34,0.02-0.67,0.07-1
	c0.66,0.44,1.46,0.7,2.32,0.7c2.31,0,4.18-1.87,4.18-4.18c0-0.86-0.26-1.65-0.7-2.32c0.32-0.05,0.66-0.07,1-0.07
	C150.4,112.87,153.47,115.94,153.47,119.73z"/>
<path fill="#352501" d="M180.05,160.04h-22.1c-3.12,0-5.67-2.55-5.67-5.67v0c0-3.12,2.55-5.67,5.67-5.67h22.1
	c3.12,0,5.67,2.55,5.67,5.67v0C185.72,157.49,183.17,160.04,180.05,160.04z"/>
<path fill="#666666" d="M254.69,139.14l-2.38,3.59c-2.16,2.68-4.35,5.11-6.57,7.16l-6.57,5.38c-5.89,5-13.15,7.71-25.08,8.36
	c-8.3,0.97-16.74,2.17-22.1-1.79c-5.21-3.72-9.81-8.84-21.16-8.37h-4.26c-11.34-0.47-15.95,4.65-21.16,8.37
	c-5.36,3.96-13.79,2.76-22.09,1.79c-11.94-0.65-19.2-3.36-25.09-8.36l-6.56-5.38c-2.23-2.05-4.41-4.48-6.57-7.16l-2.39-3.59
	c-0.67-1.59-0.66-3.01,0-4.77c0.05-0.16-0.03-0.65,1.19,1.79l7.17,5.37c2.33,1.37,4.53,2.76,6.57,4.18
	c2.37,0.96,4.61,2.07,7.16,2.99c1.25,0.08,2.45,0.09,3.59,0c3.06-0.91,5.63-1.43,8.95-1.79c4.84-0.18,8.54-0.68,10.75-1.8
	c4.94-1.34,8.52-3.65,11.95-5.97c3.48-2.3,6.88-4.34,10.15-5.97c2.8-0.79,5.8-0.96,8.96-0.6c2.48,1.27,4.51,2.38,8.36,2.99h2.39
	c3.84-0.61,5.88-1.72,8.36-2.99c3.15-0.36,6.15-0.19,8.95,0.6c3.27,1.63,6.67,3.67,10.16,5.97c3.43,2.32,7,4.63,11.94,5.97
	c2.21,1.12,5.91,1.62,10.75,1.8c3.32,0.36,5.89,0.88,8.96,1.79c1.14,0.09,2.34,0.08,3.58,0c2.55-0.92,4.79-2.03,7.17-2.99
	c2.03-1.42,4.23-2.81,6.56-4.18l7.17-5.37c1.22-2.44,1.14-1.95,1.19-1.79C255.35,136.13,255.36,137.55,254.69,139.14z"/>
<path fill="#F2F2F2" d="M189.9,115.25c0,2.31-1.87,4.18-4.18,4.18c-0.86,0-1.65-0.26-2.32-0.7c0.44-2.99,2.81-5.36,5.8-5.8
	C189.64,113.6,189.9,114.39,189.9,115.25z"/>
<path fill="#F2F2F2" d="M146.31,115.25c0,2.31-1.87,4.18-4.18,4.18c-0.86,0-1.65-0.26-2.32-0.7c0.44-2.99,2.81-5.36,5.8-5.8
	C146.05,113.6,146.31,114.39,146.31,115.25z"/>
<path fill="#352501" d="M177.36,130.78c0,2.64-3.88,4.78-8.66,4.78c-4.78,0-8.66-2.14-8.66-4.78c0-0.3,0.05-0.61,0.16-0.9
	c0.76,2.21,4.28,3.88,8.5,3.88s7.75-1.67,8.5-3.88C177.31,130.17,177.36,130.48,177.36,130.78z"/>
<path fill="#D8BFC5" d="M326.65,270.52L326.65,270.52c6.24,0,11.35-5.11,11.35-11.35v-7.17c0-6.24-5.11-11.35-11.35-11.35h0
	c-6.24,0-11.35,5.11-11.35,11.35v7.17C315.31,265.41,320.41,270.52,326.65,270.52z"/>
<path fill="#D8BFC5" d="M11.35,270.52L11.35,270.52c6.24,0,11.35-5.11,11.35-11.35v-7.17c0-6.24-5.11-11.35-11.35-11.35h0
	C5.11,240.66,0,245.77,0,252.01l0,7.17C0,265.41,5.11,270.52,11.35,270.52z"/>
</svg>
